PathFileType	4	(X/Y/Z)	C:\Users\Basilio\Documents\Thesis Gigler\squatting_fais\c3dfiles\076\SJ_pre3\markers_experimental.trc
DataRate	CameraRate	NumFrames	NumMarkers	Units	OrigDataRate	OrigDataStartFrame	OrigNumFrames
200.000000	200.000000	4	61	mm	200.000000	853	1365
Frame#	Time	FHD			RBHD			C7			T10			CLAV			LSHO			LUUPA			LMUPA			LDUPA			LLEP			LMEP			LRAD			LUL			LRFIN			RSHO			RUPA1			RMUPA			RDUPA			RLEP			RMEP			RRAD			RUL			RUFIN			LASI			RASI			USACR			LSACR			RSACR			LTHI1			LTHI2			LTHI3			LTHI4			LLFC			LMFC			LTIB1			LTIB2			LTIB3			LTIB4			LLMAL			LMMAL			LHEE			LMT1			LMT2			LMT5			RTHI			RTHI2			RTHI3			RTHI4			RLFC			RMFC			RTIB1			RTIB2			RTIB3			RTIB4			RLMAL			RMMAL			RHEE			RMT1			RMT2			RMT5			LBHD			
		X1	Y1	Z1	X2	Y2	Z2	X3	Y3	Z3	X4	Y4	Z4	X5	Y5	Z5	X6	Y6	Z6	X7	Y7	Z7	X8	Y8	Z8	X9	Y9	Z9	X10	Y10	Z10	X11	Y11	Z11	X12	Y12	Z12	X13	Y13	Z13	X14	Y14	Z14	X15	Y15	Z15	X16	Y16	Z16	X17	Y17	Z17	X18	Y18	Z18	X19	Y19	Z19	X20	Y20	Z20	X21	Y21	Z21	X22	Y22	Z22	X23	Y23	Z23	X24	Y24	Z24	X25	Y25	Z25	X26	Y26	Z26	X27	Y27	Z27	X28	Y28	Z28	X29	Y29	Z29	X30	Y30	Z30	X31	Y31	Z31	X32	Y32	Z32	X33	Y33	Z33	X34	Y34	Z34	X35	Y35	Z35	X36	Y36	Z36	X37	Y37	Z37	X38	Y38	Z38	X39	Y39	Z39	X40	Y40	Z40	X41	Y41	Z41	X42	Y42	Z42	X43	Y43	Z43	X44	Y44	Z44	X45	Y45	Z45	X46	Y46	Z46	X47	Y47	Z47	X48	Y48	Z48	X49	Y49	Z49	X50	Y50	Z50	X51	Y51	Z51	X52	Y52	Z52	X53	Y53	Z53	X54	Y54	Z54	X55	Y55	Z55	X56	Y56	Z56	X57	Y57	Z57	X58	Y58	Z58	X59	Y59	Z59	X60	Y60	Z60	X61	Y61	Z61	

854	4.265	-55.90428161621095	1964.236083984375	-902.6607055664065	-193.4689025878907	1931.182373046875	-848.0325317382815	-276.4299621582032	1814.3916015625	-919.381042480469	-327.7225036621094	1496.470703125	-942.3186035156252	-139.0336303710938	1735.989501953125	-925.4522705078127	-195.0244140625001	1781.961303710938	-1091.926513671875	-204.8971252441407	1636.486694335938	-1231.721435546875	-198.2616577148438	1589.683471679688	-1214.232055664063	-214.9123229980469	1579.361328125	-1271.669555664063	-230.6076202392579	1534.23193359375	-1304.012329101563	-315.7000122070313	1534.465209960938	-1281.200561523438	-277.9861755371094	1352.559814453125	-1146.217651367188	-240.5418701171876	1314.594604492188	-1182.1875	-233.0298614501954	1352.052124023438	-1109.317260742188	-195.7817535400391	1762.698486328125	-758.4455566406251	-272.5906066894532	1644.72900390625	-621.5581054687501	-248.8670654296876	1600.901489257813	-616.7098999023439	-297.4277648925782	1591.156494140625	-581.2330932617189	-309.8168945312501	1521.234985351563	-558.1021728515626	-377.8796081542969	1523.251708984375	-615.4454956054689	-289.7420654296876	1371.776977539063	-749.7195434570314	-267.9832458496094	1327.798461914063	-704.1717529296876	-235.6585083007813	1362.616577148438	-774.2869262695315	-182.985580444336	1297.519897460938	-1050.946533203125	-180.9265747070313	1303.683837890625	-840.4429931640627	-333.9449462890626	1393.256591796875	-949.0869750976565	-343.2237243652344	1365.148681640625	-979.9982910156252	-343.3128051757813	1362.31201171875	-922.3316040039065	-288.1124267578126	1144.35009765625	-1118.825805664063	-266.5994567871094	1062.092529296875	-1119.242065429688	-216.1054992675782	1061.113403320313	-1117.045776367188	-297.1451721191407	1013.35302734375	-1099.284912109375	-304.8536682128907	854.5374145507815	-1071.968994140625	-247.9843444824219	846.7535400390627	-967.2478637695315	-276.3477172851563	704.7117309570314	-1008.851379394531	-322.3039550781251	656.3424682617189	-1066.914184570313	-284.4789428710938	654.8945922851564	-1039.5283203125	-301.3302612304688	579.8195800781251	-1004.024597167969	-391.4169311523439	469.5764770507814	-1033.20947265625	-335.5562744140626	469.4749755859376	-968.801452636719	-424.4178466796876	489.2080078125001	-970.8326416015627	-293.5735168457032	333.1089477539063	-993.264099121094	-300.8600158691407	325.9642639160157	-1030.751831054688	-341.9828186035157	326.4822082519532	-1068.246337890625	-307.8554687500001	1055.713623046875	-773.506286621094	-275.5986633300782	998.1270141601565	-761.7893676757814	-240.7098999023438	998.8742675781252	-759.5272216796876	-303.2513732910157	922.3095703125002	-781.7205200195315	-306.2923278808594	861.6939086914065	-783.9001464843752	-245.1205139160157	848.8963012695315	-885.5095825195315	-268.0648803710938	726.6698608398439	-784.105651855469	-344.1805419921876	649.5083007812501	-776.2243652343752	-297.8765869140626	645.5572509765626	-768.7276000976565	-277.1783142089844	596.6876220703126	-793.4659423828127	-354.4527282714844	459.970184326172	-776.640075683594	-304.3155517578126	466.9405212402345	-845.159362792969	-392.5798950195314	475.3872680664064	-834.506286621094	-245.7870025634766	337.3820800781251	-825.164733886719	-247.3959350585938	333.4875183105469	-778.930603027344	-296.0102844238282	325.9626770019532	-742.4627685546876	-206.3214874267579	1924.979248046875	-1000.518676757813	
855	4.27	-56.79345321655275	1965.308349609375	-903.5020751953127	-194.3586730957032	1932.214965820313	-848.607849121094	-277.3458251953126	1814.912963867188	-919.7393798828127	-327.8512573242188	1497.244873046875	-942.271911621094	-139.6834869384766	1736.733764648438	-925.6284790039065	-195.9434051513672	1782.587646484375	-1092.205810546875	-204.9779815673829	1637.271118164063	-1232.11865234375	-197.5221099853516	1590.417358398438	-1214.73095703125	-214.2029266357422	1579.836181640625	-1272.051635742188	-229.8056640625001	1534.565063476563	-1304.320556640625	-315.1135253906251	1534.60107421875	-1281.68359375	-277.3092651367188	1353.048950195313	-1146.349243164063	-239.384750366211	1315.09912109375	-1182.010620117188	-232.421859741211	1352.718872070313	-1109.200073242188	-196.6345977783204	1763.411376953125	-758.7019653320314	-272.3981628417969	1644.751220703125	-621.6900634765626	-248.5786743164063	1600.900268554688	-617.1477661132814	-296.9119873046876	1590.964721679688	-581.4442138671876	-309.0580444335938	1521.118530273438	-558.3845825195314	-377.3925476074219	1522.774658203125	-615.4027709960939	-288.7727966308594	1371.488403320313	-749.6607055664064	-266.9130554199219	1327.517456054688	-704.1945190429689	-234.8713378906251	1362.640991210938	-773.9301757812502	-182.4150695800782	1298.435424804688	-1050.736572265625	-180.4306640625	1303.287719726563	-840.1685791015627	-333.5776367187501	1393.943237304688	-948.8957519531252	-342.7850036621094	1365.964599609375	-979.6887817382815	-342.8503112792969	1362.970581054688	-922.1573486328127	-287.8474121093751	1145.16796875	-1119.106689453125	-265.4053344726563	1062.952514648438	-1119.328491210938	-214.8267669677735	1061.979858398438	-1117.2548828125	-295.7650146484376	1014.028015136719	-1099.711303710938	-303.4095458984376	855.4270629882815	-1073.152587890625	-247.2601928710938	847.293884277344	-967.9763183593752	-276.4141235351563	705.3836059570314	-1009.744323730469	-322.4137573242188	657.1479492187501	-1068.095703125	-284.6687011718751	655.6833496093751	-1040.467895507813	-302.6195373535157	580.1307983398439	-1004.928161621094	-392.8902587890626	470.6377563476564	-1034.640380859375	-337.8884582519532	470.6194763183595	-969.995300292969	-426.1306762695314	490.7832336425782	-972.372009277344	-296.2001342773438	333.9998474121094	-993.3831787109377	-303.5086669921876	326.9484863281251	-1031.098266601563	-343.6844787597657	327.3185119628907	-1068.582275390625	-307.1449584960938	1056.517333984375	-773.249450683594	-274.7786560058594	998.7324829101565	-761.5111694335939	-240.0748443603516	999.6087646484377	-759.3911132812501	-302.8089904785157	923.0113525390627	-781.3818359375002	-305.9285888671876	862.395446777344	-783.5021972656252	-245.0338897705079	849.7095947265627	-885.2652587890627	-267.9960937500001	727.4263916015626	-783.5818481445315	-343.7586059570313	650.4465332031251	-775.6253051757815	-297.6167602539063	646.1452636718751	-768.161315917969	-276.9440612792969	597.3392333984376	-792.8477783203127	-354.3988647460938	460.7313537597657	-776.0811157226565	-303.1884765625001	467.2877502441407	-844.3107910156252	-392.2405700683595	475.9871215820314	-834.1719970703127	-245.2730255126954	338.1627502441407	-823.768493652344	-247.0152130126954	334.5984191894532	-777.4274902343752	-295.7956237792969	326.9935913085938	-741.1740112304689	-206.6607208251954	1926.120239257813	-1001.525451660156	
856	4.275	-57.67909240722658	1966.033813476563	-904.269226074219	-195.0808563232422	1932.866455078125	-849.1480102539065	-278.2480773925782	1815.319702148438	-920.1304321289065	-327.9815673828126	1497.85791015625	-942.1704711914065	-140.3934936523438	1737.196411132813	-925.9222412109377	-198.2896881103516	1782.991088867188	-1092.726440429688	-204.8629150390626	1637.671142578125	-1232.510009765625	-196.7728271484376	1590.885009765625	-1215.16943359375	-213.737289428711	1580.099853515625	-1272.399658203125	-229.6088562011719	1534.73583984375	-1304.957885742188	-314.4876403808594	1534.351806640625	-1282.236206054688	-276.8161926269532	1353.326293945313	-1146.470947265625	-238.5215301513672	1315.409301757813	-1181.868041992188	-231.7070007324219	1353.161743164063	-1109.164916992188	-197.3977813720704	1763.839477539063	-758.9880981445314	-272.1763610839844	1644.598999023438	-621.7813720703126	-248.2635192871094	1600.634155273438	-617.6223144531251	-296.3638916015626	1590.586303710938	-581.6496582031251	-308.3483581542969	1520.741821289063	-558.6677856445314	-377.0589294433594	1522.20556640625	-615.5025024414064	-288.9108581542969	1370.611938476563	-749.6569824218751	-265.8687133789063	1326.987915039063	-704.0466308593751	-234.0878906250001	1362.43408203125	-773.4918212890627	-181.8956146240235	1299.202026367188	-1050.74169921875	-179.6019287109375	1303.077514648438	-840.1428833007815	-333.2740783691407	1394.348388671875	-948.714782714844	-343.0498352050782	1366.347290039063	-979.071228027344	-342.3033447265626	1363.033569335938	-922.0825805664065	-286.8430175781251	1145.644653320313	-1119.183715820313	-264.1918640136719	1063.286499023438	-1119.234985351563	-214.1233673095704	1062.768798828125	-1117.174682617188	-295.7465515136719	1014.652526855469	-1100.389770507813	-302.1243286132813	855.9885253906252	-1074.236206054688	-246.4962158203126	847.6370849609377	-968.8817138671877	-276.3114624023438	705.7709960937501	-1010.711486816406	-322.5791320800782	657.7875366210939	-1069.093383789063	-284.9679260253907	655.9681396484376	-1041.39306640625	-303.5082702636719	580.6694946289064	-1005.931091308594	-394.7086791992189	472.0303649902345	-1035.933471679688	-339.5361633300782	471.7176818847657	-971.0769653320315	-428.1176147460939	492.2133789062501	-973.9208984375002	-298.0957946777344	335.0218505859376	-993.8425903320315	-305.1295471191407	327.7669067382813	-1031.818481445313	-346.4448547363282	328.0424194335938	-1069.3427734375	-306.5719604492188	1056.842895507813	-773.0533447265627	-274.1488647460938	999.093688964844	-761.2075805664064	-239.4721069335938	1000.010620117188	-759.3119506835939	-302.2843627929688	923.4788208007815	-781.0035400390627	-305.5895690917969	862.831970214844	-783.129577636719	-244.8897247314454	850.1118774414065	-885.0604248046877	-267.5263671875001	727.6859130859376	-782.824645996094	-343.5374145507813	650.9019775390626	-775.0753173828127	-297.3438110351563	646.6758422851564	-767.6407470703126	-276.5683593750001	597.8323974609376	-792.1729736328127	-354.3405456542969	461.2158203125001	-775.6058349609377	-303.0176696777344	467.7108459472657	-843.621276855469	-391.9014892578126	476.2366333007814	-834.0531005859377	-244.8779602050782	338.6160278320313	-822.0544433593752	-246.9268493652344	335.0557556152344	-775.8063964843752	-295.8301391601563	327.9270935058594	-739.6143188476564	-208.0157623291016	1927.1474609375	-1001.093322753906	
857	4.28	-58.57760620117189	1966.315551757813	-905.284606933594	-195.8862915039063	1933.210327148438	-849.672546386719	-279.0307922363282	1815.638549804688	-920.605895996094	-328.1678466796876	1498.120239257813	-942.009948730469	-141.14794921875	1737.568237304688	-926.2911376953127	-199.0399627685547	1783.098876953125	-1093.065551757813	-204.8003997802735	1637.72607421875	-1232.863037109375	-195.9738922119141	1591.06201171875	-1215.66650390625	-213.2833404541016	1580.109008789063	-1272.766479492188	-228.991928100586	1534.517211914063	-1305.17236328125	-313.8316650390626	1533.828857421875	-1282.786499023438	-276.2020568847657	1353.21533203125	-1146.529907226563	-237.851303100586	1315.45703125	-1181.921508789063	-231.0899810791016	1353.380126953125	-1109.1142578125	-198.1806335449219	1763.900268554688	-759.1823730468751	-271.8932189941407	1644.148803710938	-621.9563598632814	-247.9814758300782	1600.168579101563	-618.0281372070314	-295.8356323242188	1589.9853515625	-581.8652343750001	-307.7120971679688	1520.084838867188	-558.9046020507814	-376.4796142578126	1521.5546875	-615.5623779296876	-287.4530334472657	1369.833251953125	-749.4607543945314	-264.6480407714844	1326.52978515625	-703.8884887695314	-233.3899688720704	1361.901489257813	-773.195007324219	-181.3831939697266	1299.607543945313	-1050.703369140625	-179.456527709961	1303.785522460938	-840.0227661132815	-333.0055236816407	1394.468383789063	-948.540466308594	-341.9391784667969	1366.589111328125	-979.1868286132815	-342.2161865234376	1363.483520507813	-921.7030029296877	-285.8293457031251	1146.023315429688	-1119.51171875	-262.7507934570313	1063.548706054688	-1119.614013671875	-212.9226837158204	1063.065673828125	-1117.001708984375	-293.3857116699219	1014.667724609375	-1100.70166015625	-300.6716613769532	856.1973266601565	-1075.323974609375	-245.624252319336	847.6392211914065	-969.8057861328127	-276.2246704101563	705.8226928710939	-1011.719665527344	-322.6033020019532	658.1403808593751	-1070.321655273438	-285.1221618652344	656.0601806640626	-1042.613403320313	-304.4851074218751	581.1651611328126	-1007.276977539063	-396.3402099609376	472.8671264648439	-1037.303100585938	-341.0858459472657	472.4548645019532	-972.3257446289065	-429.6160583496095	493.3511047363282	-975.351501464844	-300.3466186523438	335.7207031250001	-994.8775024414065	-307.6500549316407	328.1860961914063	-1032.628173828125	-347.9674072265626	328.5677795410157	-1070.009399414063	-305.7985534667969	1056.977294921875	-772.7767333984377	-273.5762634277344	999.1727294921877	-760.8817138671876	-238.7918243408204	1000.028930664063	-759.3674926757814	-301.5893554687501	923.6075439453127	-780.513122558594	-305.1200256347657	862.9910278320315	-782.6680908203127	-244.6200408935547	850.5062255859377	-884.8074951171877	-267.0989379882813	727.9621582031251	-782.1167602539065	-343.2874145507813	651.0786132812501	-774.534851074219	-297.1001892089844	646.8343505859376	-767.0609741210939	-276.2418518066407	598.0382080078126	-791.4976806640627	-354.3305664062501	461.606170654297	-775.1376953125002	-302.7064208984376	467.7757568359376	-842.973083496094	-391.5788574218751	476.1896057128907	-833.9791259765627	-244.3567504882813	338.6901550292969	-820.334411621094	-246.6575927734376	335.6861877441407	-773.8328247070315	-295.8249816894532	328.6480712890626	-737.9396362304689	-208.7780914306641	1927.260131835938	-1001.6103515625	
